<?xml version="1.0" encoding="UTF-8"?> <svg xmlns="http://www.w3.org/2000/svg" width="179" height="54" viewBox="0 0 179 54" fill="none"> <circle cx="12.5" cy="16.5" r="12.5" fill="#6FCF97"></circle> <circle cx="12.5" cy="41.5" r="12.5" fill="#6FCF97"></circle> <circle cx="37.5" cy="16.5" r="12.5" fill="#6FCF97"></circle> <circle cx="37.5" cy="41.5" r="12.5" fill="#6FCF97"></circle> <path d="M72.054 25.41C70.486 25.41 69.156 25.984 68.064 27.132C66.972 28.252 66.426 29.792 66.426 31.752C66.426 33.74 66.972 35.308 68.064 36.456C69.184 37.604 70.542 38.178 72.138 38.178C73.566 38.178 74.7 37.8 75.54 37.044C76.408 36.26 76.982 35.378 77.262 34.398L81.546 35.952C80.986 37.772 79.894 39.34 78.27 40.656C76.674 41.972 74.63 42.63 72.138 42.63C69.142 42.63 66.622 41.594 64.578 39.522C62.562 37.45 61.554 34.86 61.554 31.752C61.554 28.616 62.548 26.026 64.536 23.982C66.552 21.938 69.044 20.916 72.012 20.916C74.56 20.916 76.632 21.574 78.228 22.89C79.852 24.206 80.902 25.788 81.378 27.636L77.01 29.232C76.73 28.168 76.184 27.272 75.372 26.544C74.588 25.788 73.482 25.41 72.054 25.41ZM90.7447 42H85.8727V11.592H90.7447V42ZM101.943 36.54C103.063 37.688 104.421 38.262 106.017 38.262C107.613 38.262 108.957 37.688 110.049 36.54C111.169 35.392 111.729 33.796 111.729 31.752C111.729 29.736 111.169 28.168 110.049 27.048C108.957 25.9 107.613 25.326 106.017 25.326C104.421 25.326 103.063 25.9 101.943 27.048C100.851 28.168 100.305 29.736 100.305 31.752C100.305 33.768 100.851 35.364 101.943 36.54ZM106.017 20.916C109.097 20.916 111.631 21.938 113.619 23.982C115.635 26.026 116.643 28.616 116.643 31.752C116.643 34.888 115.635 37.492 113.619 39.564C111.631 41.608 109.097 42.63 106.017 42.63C102.965 42.63 100.431 41.608 98.4149 39.564C96.4269 37.492 95.4329 34.888 95.4329 31.752C95.4329 28.616 96.4269 26.026 98.4149 23.982C100.431 21.938 102.965 20.916 106.017 20.916ZM139.216 21.546L131.194 42H126.322L118.006 21.546H123.382L128.8 36.162L134.092 21.546H139.216ZM145.589 29.526H155.627C155.571 28.238 155.109 27.16 154.241 26.292C153.401 25.424 152.183 24.99 150.587 24.99C149.131 24.99 147.955 25.452 147.059 26.376C146.163 27.272 145.673 28.322 145.589 29.526ZM156.173 34.86L160.289 36.162C159.701 38.038 158.595 39.592 156.971 40.824C155.375 42.028 153.401 42.63 151.049 42.63C148.137 42.63 145.659 41.636 143.615 39.648C141.599 37.66 140.591 35 140.591 31.668C140.591 28.532 141.571 25.956 143.531 23.94C145.519 21.924 147.857 20.916 150.545 20.916C153.681 20.916 156.131 21.882 157.895 23.814C159.659 25.718 160.541 28.294 160.541 31.542C160.541 32.41 160.499 32.928 160.415 33.096H145.463C145.519 34.636 146.079 35.91 147.143 36.918C148.235 37.926 149.537 38.43 151.049 38.43C153.681 38.43 155.389 37.24 156.173 34.86ZM177.167 21.42V26.376C176.607 26.292 176.075 26.25 175.571 26.25C171.903 26.25 170.069 28.252 170.069 32.256V42H165.197V21.546H169.943V24.822C170.419 23.73 171.189 22.876 172.253 22.26C173.317 21.616 174.521 21.294 175.865 21.294C176.313 21.294 176.747 21.336 177.167 21.42Z" fill="white"></path> </svg> 